REM DIRINDEX 1\2,1\3,1\4,1\5,1\6
REM DIRNAME cjc129,folder01,folder02,folder03,folder04,folder05
TITLE ""
FILE "DISC1Track23.mp3" MP3
  TRACK 01 AUDIO
    TITLE "0:"
    INDEX 01 00:00:00
  TRACK 02 AUDIO
    TITLE "3:cjc129_0631"
    INDEX 01 00:00:05
  TRACK 03 AUDIO
    TITLE "0:"
    INDEX 01 00:01:28
  TRACK 04 AUDIO
    TITLE "5:cjc129_0632"
    INDEX 01 00:01:62
  TRACK 05 AUDIO
    TITLE "0:"
    INDEX 01 00:03:19
  TRACK 06 AUDIO
    TITLE "4:cjc129_0633"
    INDEX 01 00:04:11
  TRACK 07 AUDIO
    TITLE "0:"
    INDEX 01 00:05:38
  TRACK 08 AUDIO
    TITLE "6:cjc129_0634"
    INDEX 01 00:05:67
  TRACK 09 AUDIO
    TITLE "0:"
    INDEX 01 00:10:02
  TRACK 10 AUDIO
    TITLE "3:cjc129_0635"
    INDEX 01 00:11:52
  TRACK 11 AUDIO
    TITLE "0:"
    INDEX 01 00:14:68
  TRACK 12 AUDIO
    TITLE "5:cjc129_0636"
    INDEX 01 00:15:25
  TRACK 13 AUDIO
    TITLE "0:"
    INDEX 01 00:19:50
  TRACK 14 AUDIO
    TITLE "4:cjc129_0637"
    INDEX 01 00:20:39
  TRACK 15 AUDIO
    TITLE "0:"
    INDEX 01 00:23:55
  TRACK 16 AUDIO
    TITLE "6:cjc129_0638"
    INDEX 01 00:24:14
  TRACK 17 AUDIO
    TITLE "0:"
    INDEX 01 00:28:41
  TRACK 18 AUDIO
    TITLE "3:cjc129_0639"
    INDEX 01 00:30:16
  TRACK 19 AUDIO
    TITLE "0:"
    INDEX 01 00:31:55
  TRACK 20 AUDIO
    TITLE "5:cjc129_0640"
    INDEX 01 00:32:11
  TRACK 21 AUDIO
    TITLE "0:"
    INDEX 01 00:35:74
  TRACK 22 AUDIO
    TITLE "4:cjc129_0641"
    INDEX 01 00:36:66
  TRACK 23 AUDIO
    TITLE "0:"
    INDEX 01 00:38:30
  TRACK 24 AUDIO
    TITLE "6:cjc129_0642"
    INDEX 01 00:38:59
  TRACK 25 AUDIO
    TITLE "0:"
    INDEX 01 00:41:53
  TRACK 26 AUDIO
    TITLE "3:cjc129_0643"
    INDEX 01 00:43:31
  TRACK 27 AUDIO
    TITLE "0:"
    INDEX 01 00:45:04
  TRACK 28 AUDIO
    TITLE "5:cjc129_0644"
    INDEX 01 00:45:33
  TRACK 29 AUDIO
    TITLE "0:"
    INDEX 01 00:47:38
  TRACK 30 AUDIO
    TITLE "4:cjc129_0645"
    INDEX 01 00:48:26
  TRACK 31 AUDIO
    TITLE "0:"
    INDEX 01 00:49:70
  TRACK 32 AUDIO
    TITLE "6:cjc129_0646"
    INDEX 01 00:50:29
  TRACK 33 AUDIO
    TITLE "0:"
    INDEX 01 00:54:46
  TRACK 34 AUDIO
    TITLE "3:cjc129_0647"
    INDEX 01 00:56:20
  TRACK 35 AUDIO
    TITLE "0:"
    INDEX 01 00:58:13
  TRACK 36 AUDIO
    TITLE "5:cjc129_0648"
    INDEX 01 00:58:42
  TRACK 37 AUDIO
    TITLE "0:"
    INDEX 01 01:00:35
  TRACK 38 AUDIO
    TITLE "4:cjc129_0649"
    INDEX 01 01:01:25
  TRACK 39 AUDIO
    TITLE "0:"
    INDEX 01 01:03:16
  TRACK 40 AUDIO
    TITLE "6:cjc129_0650"
    INDEX 01 01:03:49
  TRACK 41 AUDIO
    TITLE "0:"
    INDEX 01 01:08:13
  TRACK 42 AUDIO
    TITLE "3:cjc129_0651"
    INDEX 01 01:09:63
  TRACK 43 AUDIO
    TITLE "0:"
    INDEX 01 01:11:64
  TRACK 44 AUDIO
    TITLE "5:cjc129_0652"
    INDEX 01 01:12:19
  TRACK 45 AUDIO
    TITLE "0:"
    INDEX 01 01:14:41
  TRACK 46 AUDIO
    TITLE "4:cjc129_0653"
    INDEX 01 01:15:31
  TRACK 47 AUDIO
    TITLE "0:"
    INDEX 01 01:17:32
  TRACK 48 AUDIO
    TITLE "6:cjc129_0654"
    INDEX 01 01:17:61
  TRACK 49 AUDIO
    TITLE "0:"
    INDEX 01 01:21:61
  TRACK 50 AUDIO
    TITLE "3:cjc129_0655"
    INDEX 01 01:23:34
  TRACK 51 AUDIO
    TITLE "0:"
    INDEX 01 01:25:31
  TRACK 52 AUDIO
    TITLE "5:cjc129_0656"
    INDEX 01 01:25:64
  TRACK 53 AUDIO
    TITLE "0:"
    INDEX 01 01:30:62
  TRACK 54 AUDIO
    TITLE "4:cjc129_0657"
    INDEX 01 01:31:51
  TRACK 55 AUDIO
    TITLE "0:"
    INDEX 01 01:33:52
  TRACK 56 AUDIO
    TITLE "6:cjc129_0658"
    INDEX 01 01:34:06
  TRACK 57 AUDIO
    TITLE "0:"
    INDEX 01 01:38:04
  TRACK 58 AUDIO
    TITLE "3:cjc129_0659"
    INDEX 01 01:39:59
  TRACK 59 AUDIO
    TITLE "0:"
    INDEX 01 01:41:65
  TRACK 60 AUDIO
    TITLE "5:cjc129_0660"
    INDEX 01 01:42:22
  TRACK 61 AUDIO
    TITLE "0:"
    INDEX 01 01:44:17
  TRACK 62 AUDIO
    TITLE "4:cjc129_0661"
    INDEX 01 01:45:06
  TRACK 63 AUDIO
    TITLE "0:"
    INDEX 01 01:47:13
  TRACK 64 AUDIO
    TITLE "6:cjc129_0662"
    INDEX 01 01:47:44
  TRACK 65 AUDIO
    TITLE "0:"
    INDEX 01 01:52:14
